<svg height="256" preserveAspectRatio="xMidYMid" viewBox="0 0 256 256" width="256" xmlns="http://www.w3.org/2000/svg" xmlns:xlink="http://www.w3.org/1999/xlink"><radialGradient id="a" cx=".000016%" cy="99.999994%" gradientTransform="matrix(.832531 0 0 .832531 0 .167469)" r="120.115697%"><stop offset="0" stop-color="#00c812"/><stop offset="1" stop-color="#006e00"/></radialGradient><radialGradient id="b" cx=".000006%" cy="-.000385%" gradientTransform="matrix(0 .832534 -.832531 0 -.000003 -.000004)" r="120.115697%"><stop offset="0" stop-color="#56affd"/><stop offset="1" stop-color="#04a3ff"/></radialGradient><radialGradient id="c" cx="99.999984%" cy=".000006%" gradientTransform="matrix(-.832531 0 0 -.832531 1.832531 0)" r="120.115697%"><stop offset="0" stop-color="#df1f00"/><stop offset="1" stop-color="#560d00"/></radialGradient><radialGradient id="d" cx="99.999994%" cy="100.000694%" gradientTransform="matrix(0 -.832536 .832531 0 .167463 1.832543)" r="120.115697%"><stop offset="0" stop-color="#00fffd"/><stop offset="1" stop-color="#00daff"/></radialGradient><radialGradient id="e" cx=".000355%" cy="99.999994%" gradientTransform="matrix(1 0 0 1.00000352 0 -.000004)" r="99.99964%"><stop offset="0" stop-color="#008200"/><stop offset="1" stop-color="#007500"/></radialGradient><radialGradient id="f" cx=".000006%" cy=".000091%" gradientTransform="matrix(0 1 -1.00000003 0 .000001 .000001)" r="99.999904%"><stop offset="0" stop-color="#3166d4"/><stop offset="1" stop-color="#1a509e"/></radialGradient><radialGradient id="g" cx="100.000355%" cy=".000006%" gradientTransform="matrix(-1 0 0 -.99999654 2.000008 0)" r="100.00035%"><stop offset="0" stop-color="#8e1400"/><stop offset="1" stop-color="#4b0b00"/></radialGradient><radialGradient id="h" cx="99.999994%" cy="100.001042%" gradientTransform="matrix(0 -1 1.00000701 0 -.000017 2.00001)" r="99.999333%"><stop offset="0" stop-color="#0090c4"/><stop offset="1" stop-color="#005d8c"/></radialGradient><radialGradient id="i" cx="0%" cy="99.998902%" gradientTransform="matrix(1 0 0 .99998603 0 .000014)" r="99.999992%"><stop offset="0" stop-color="#00cd1c"/><stop offset="1" stop-color="#00e950"/></radialGradient><radialGradient id="j" cx="-.000007%" cy="-.000012%" gradientTransform="matrix(0 1 -1.00000076 0 0 0)" r="99.999992%"><stop offset="0" stop-color="#b1c8fd"/><stop offset="1" stop-color="#7ec3fd"/></radialGradient><radialGradient id="k" cx="99.999987%" cy="-.000007%" gradientTransform="matrix(-1 0 0 -1.00000076 2 0)" r="99.999992%"><stop offset="0" stop-color="#e12a00"/><stop offset="1" stop-color="#b62f00"/></radialGradient><radialGradient id="l" cx="100.000007%" cy="100%" gradientTransform="matrix(0 -1 1.00001695 0 -.000017 2)" r="99.998364%"><stop offset="0" stop-color="#00b6dd"/><stop offset="1" stop-color="#0ff"/></radialGradient><path d="m179.2 230.4h76.8l-122.88-102.4c-1.687 37.193 14.687 73.58 46.08 102.4" fill="url(#a)"/><path d="m25.6 179.2v76.8l102.4-122.88c-1.746-.079-3.483-.118-5.225-.118-35.36.002-69.708 16.279-97.175 46.198" fill="url(#b)"/><path d="m0 25.6 122.88 102.4c1.687-37.192-14.687-73.58-46.08-102.4z" fill="url(#c)"/><path d="m230.4 0-102.4 122.879c37.193 1.688 73.58-14.687 102.4-46.08z" fill="url(#d)"/><path d="m128 128c-11.479 29.755-9.745 60.086 5.12 89.601 15.36 7.679 28.16 12.799 46.08 12.799-31.393-28.82-47.767-65.207-46.08-102.4z" fill="url(#e)"/><path d="m38.4 133.12c-7.679 15.361-12.8 28.16-12.8 46.08 28.819-31.393 65.207-47.766 102.4-46.08v-5.12c-12.944-4.993-25.994-7.486-39.04-7.486-16.946.001-33.884 4.207-50.56 12.606" fill="url(#f)"/><path d="m122.88 128h5.12c11.478-29.755 9.745-60.087-5.12-89.6-15.36-7.68-28.159-12.8-46.08-12.8 31.393 28.82 47.767 65.208 46.08 102.4" fill="url(#g)"/><path d="m128 122.879v5.121c29.755 11.478 60.086 9.744 89.6-5.121 7.68-15.358 12.8-28.158 12.8-46.08-28.82 31.393-65.207 47.768-102.4 46.08" fill="url(#h)"/><path d="m71.68 166.4 61.44 51.201c-14.865-29.515-16.599-59.846-5.12-89.601-1.776-.592-3.858-.876-6.158-.876-17.599.001-47.898 16.635-50.162 39.276" fill="url(#i)"/><path d="m38.4 133.12c29.514-14.865 59.845-16.598 89.6-5.12 5.12-15.359-12.8-53.76-38.4-56.32z" fill="url(#j)"/><path d="m128 128c15.36 5.12 53.759-12.8 56.32-38.4l-61.44-51.2c14.865 29.513 16.598 59.845 5.12 89.6" fill="url(#k)"/><path d="m128 128c-5.12 15.361 12.8 53.76 38.4 56.32l51.2-61.441c-29.514 14.865-59.845 16.599-89.6 5.121" fill="url(#l)"/><path d="m127.9998 121.6004c3.535 0 6.4 2.865 6.4 6.399 0 3.536-2.865 6.401-6.4 6.401-3.534 0-6.399-2.865-6.399-6.401 0-3.534 2.865-6.399 6.399-6.399"/></svg>