<svg enable-background="new 0 0 1024 1024" height="1024" image-rendering="optimizeSpeed" viewBox="0 0 1024 1024" width="1024" xmlns="http://www.w3.org/2000/svg"><path d="m965.65 347.3q-8.6-20.85-19.4-40.85c-4.05-7.55-8.35-15.05-12.9-22.4-19.55-31.7-43.4-61.65-71.55-89.8-92.15-92.15-203.45-138.25-333.8-138.25s-241.6 46.1-333.75 138.25-138.25 203.4-138.25 333.75 46.1 241.65 138.25 333.8 203.4 138.2 333.75 138.2 241.65-46.05 333.8-138.2c50.75-50.8 87.55-107.4 110.35-169.75 18.55-50.85 27.85-105.5 27.85-164.05 0-44.9-5.45-87.55-16.4-127.95-1.25-4.55-2.55-9.1-3.9-13.6-4.1-13.3-8.8-26.35-14.05-39.15z" fill-opacity=".098039"/><path d="m968.45 382.15c-1.45-5.2-3-10.4-4.75-16-13-41.4-32.35-80.8-58-118.05-16.7-24.25-36.35-47.7-58.7-70.05-92.3-92.3-203.75-138.45-334.3-138.45s-241.95 46.15-334.25 138.45c-22.3 22.3-41.9 45.7-58.65 70.05-25.55 36.95-44.9 76.35-58.05 118.05-1.75 5.4-3.3 10.7-4.75 16-5.55 20.2-9.75 40.9-12.55 62.05-2.95 22.2-4.45 44.85-4.45 68.1 0 29.8 2.4 58.55 7.15 85.9 2.95 17.3 6.8 33.85 11.5 50 .8 2.75 1.65 5.5 2.4 8.05 12.9 41.35 31.5 80 55.8 116 17.7 26.2 38.15 50.9 61.6 74.35 82.15 82.2 179.5 127.8 291.95 136.75 13.85 1.15 27.95 1.7 42.3 1.7 130.55 0 242-46.15 334.3-138.45 23.55-23.55 44.1-48.35 61.65-74.35 17.35-25.85 31.8-52.9 43.3-81.15 4.6-11.35 8.7-22.9 12.5-34.85.75-2.55 1.6-5.3 2.4-8.05 4.7-16.15 8.5-32.7 11.5-50 4.7-27.35 7.1-56.1 7.1-85.9q0-34.965-4.425-68.1h.025c-2.8-21-7-41.75-12.6-62.05z" fill="#fff"/><path d="m901.55 374.05c-16.7-48.15-43.2-92.75-79.35-133.45-5.9-6.65-12.25-13.35-18.8-19.9-80.45-80.45-177.55-120.65-291.35-120.65s-210.9 40.2-291.35 120.65-120.65 177.55-120.65 291.35 40.2 210.9 120.65 291.35 177.55 120.65 291.35 120.65c44.9 0 87.2-6.25 126.45-18.65 61.4-19.35 116.2-53.3 164.9-102 29-29 52.75-60.15 71.3-93.5q49.35-88.7 49.35-197.85c0-11.9-.45-23.65-1.3-35.3-1-12.3-2.45-24.45-4.4-36.45-3.7-22.75-9.25-44.7-16.8-66.25z" fill="#f7da64"/><path d="m778.25 342.05-84.1 18.05-192.1-92.75-48-48-25 14.7 54.3 277.95-198.25.05 33.95 187-12.85 38.55 186.05 186.025v.025c6.75.25 13.25.4 19.8.4 44.9 0 87.2-6.25 126.45-18.65 61.4-19.35 116.2-53.3 164.9-102 29-29 52.75-60.15 71.3-93.5q49.35-88.7 49.35-197.85c0-8.25-.2-16.45-.6-24.8l-.025-.025z" fill-opacity=".2"/><path d="m699.45 342.45c-3.45 3.45-6.4 7.15-8.75 11.1l-230.3-109.1c.45-2.1.65-4.2.65-6.4 0-7.85-2.8-14.6-8.35-20.15s-12.3-8.35-20.15-8.35-14.6 2.8-20.15 8.35-8.35 12.3-8.35 20.15 2.8 14.6 8.35 20.15 12.3 8.35 20.15 8.35h.5l45.4 244.95h-133.5c-.9-13.35-6.35-25.15-16.25-35.05-10.95-10.95-24.15-16.4-39.6-16.4s-28.65 5.45-39.6 16.4-16.4 24.15-16.4 39.6 5.45 28.65 16.4 39.6 24.15 16.4 39.6 16.4c.9 0 1.8 0 2.55-.05l20.85 114.95c-4 1.3-7.75 3.6-11.1 6.95-5.55 5.55-8.35 12.3-8.35 20.15s2.8 14.6 8.35 20.15 12.3 8.35 20.15 8.35 14.6-2.8 20.15-8.35c3.1-3.1 5.3-6.55 6.75-10.35l124.15 24.1q-.55 3.95-.55 8.1c0 15.45 5.45 28.65 16.4 39.6s24.15 16.4 39.6 16.4 28.65-5.45 39.6-16.4 16.4-24.15 16.4-39.6c0-9.2-1.95-17.6-6.05-25.65l168.75-97.85c5.5 5.35 12.1 8 19.8 8 7.85 0 14.6-2.8 20.15-8.35s8.35-12.3 8.35-20.15-2.8-14.6-8.35-20.15-12.3-8.35-20.15-8.35l-18.55-146.15c11.95-1.85 22-7.1 30.65-15.75 10.95-10.95 16.4-24.15 16.4-39.6s-5.45-28.65-16.4-39.6-24.15-16.4-39.6-16.4-28.65 5.45-39.6 16.4zm-16.4 39.6c0 13.6 4.2 25.4 12.45 35.25l-64.8 70.3c-4.85-4-10.8-6.05-17.55-6.05-7.85 0-14.6 2.8-20.15 8.35s-8.35 12.3-8.35 20.15c0 .45 0 .95.05 1.45h-96.95l-45.65-246.5c4.05-1.5 7.5-3.7 10.6-6.8 1.65-1.65 3.1-3.45 4.25-5.3l229.75 108.8c-2.45 6.3-3.65 13.1-3.65 20.35zm63.35 209.85c-5.55 5.55-8.35 12.3-8.35 20.15 0 4.95 1.05 9.45 3.15 13.15l-168.1 97.45c-1.6-2.05-3.4-4.15-5.45-6.2-10.95-10.95-24.15-16.4-39.6-16.4-1.8 0-3.6.1-5.3.25l-33.3-179.65h97.15c1.6 3.75 3.65 6.8 6.4 9.55 5.55 5.55 12.3 8.35 20.15 8.35s14.6-2.8 20.15-8.35 8.35-12.3 8.35-20.15c0-5.85-1.55-11.1-4.7-15.75l64.9-70.35c10.4 9.35 22.7 14.05 36.95 14.1l18.7 146.9c-4.1 1.3-7.8 3.65-11.1 6.95zm-445.65-20.95c10.55-2.15 19.85-7.2 27.95-15.3 9.8-9.8 15.2-21.4 16.25-35h135.2l33.6 181.15c-9.45 2.35-17.9 7.25-25.3 14.65-6.75 6.75-11.45 14.4-13.9 22.55l-124.5-24.15c0-.25 0-.55 0-.8 0-7.85-2.8-14.6-8.35-20.15s-12.3-8.35-20.15-8.35z" fill="#333"/></svg>