<svg height="48pt" viewBox="0 0 48 48" width="48pt" xmlns="http://www.w3.org/2000/svg" xmlns:xlink="http://www.w3.org/1999/xlink"><linearGradient id="a" gradientUnits="userSpaceOnUse" x1=".604" x2="47.396" y1="24" y2="24"><stop offset="0" stop-color="#ffe031"/><stop offset=".98695652174" stop-color="#fc5252"/></linearGradient><path d="m29.349 34.735c.986-.766 7.308-6.138 7.943-6.749.835-.806.843-1.017.105-3.169-1.613-4.709-4.45-10.33-5.727-11.345-.532-.423-1.513-.416-2.202.013-.961.6-.918 1.408.176 3.326.394.691.717 1.303.717 1.36 0 .058-.137.104-.305.104-.214 0-.703-.609-1.655-2.058-1.447-2.206-1.864-2.557-2.815-2.364-.717.145-1.534.7-1.803 1.227-.311.608-.183.916 1.267 3.029.89 1.299 1.133 1.763.994 1.903-.1.102-.233.185-.295.185s-.873-1.045-1.801-2.322c-.594-.816-1.058-1.416-1.403-1.815-.594-.812-1.158-.56-1.887-.291-.521.257-1.049.628-1.309.973-.611.81-.521 1.322.483 2.736.483.68 1.199 1.636 1.592 2.123.688.854.854 1.455.44 1.593-.241.079-.116.218-4.733-5.229-2.86-3.373-4.203-4.84-4.539-4.959-.632-.222-1.321.069-1.997.848-.999 1.15-1.116.946 4.503 7.817 2.759 3.372 5.086 6.224 5.172 6.336.317.416-.078.387-1.586-.118-1.269-.426-1.728-.507-2.559-.454-1.377.115-2.003.875-2.034 1.925-.021.733.68 1.44 1.537 1.878.49.252 5.915 2.005 10.376 3.353 1.949.59 2.727.623 3.345.143zm-11.319-31.135h.02-.04.02l5.99.01 5.99.01c.32 0 .65.04.96.12.44.1.86.24 1.27.41.42.17.82.38 1.2.61.27.17.53.37.76.6l4.23 4.24 4.23 4.24c.23.23.43.49.59.76.24.38.44.78.61 1.19.18.42.31.84.41 1.28.08.31.12.64.13.96v.02-.04.02l-.01 5.99-.01 6.01c0 1.56-.62 3.06-1.73 4.16l-4.25 4.24-4.24 4.23c-.23.23-.49.43-.76.59-.38.24-.78.44-1.19.61-.42.18-.84.31-1.28.41-.31.08-.64.12-.96.13 0 0-.01 0-.02 0h.04-.02l-5.99-.01-5.99-.01c-.32 0-.65-.04-.96-.12-.44-.1-.86-.24-1.27-.41-.42-.17-.82-.38-1.2-.61-.27-.17-.53-.37-.76-.6l-4.23-4.24-4.23-4.24c-.23-.23-.43-.49-.59-.76-.24-.38-.44-.78-.61-1.19-.18-.42-.31-.84-.41-1.28-.08-.31-.12-.64-.13-.96l.01-5.99.01-5.99c0-.32.04-.65.12-.96.1-.44.24-.86.41-1.27.17-.42.38-.82.61-1.2.17-.27.37-.53.6-.76l4.24-4.23 4.24-4.23c.23-.23.49-.43.76-.59.38-.24.78-.44 1.19-.61.42-.18.84-.31 1.28-.41.31-.08.64-.12.96-.13zm-14.43 26.37s0-.01 0-.02v.04zm26.383 17.426-6.007-.006-6.007-.006c-2.032-.002-4.847-1.172-6.282-2.61l-4.243-4.252-4.243-4.252c-1.436-1.438-2.599-4.255-2.597-6.287l.006-6.007.006-6.007c.002-2.032 1.172-4.847 2.61-6.282l4.252-4.243 4.252-4.243c1.438-1.436 4.255-2.599 6.287-2.597l6.007.006 6.007.006c2.032.002 4.847 1.172 6.282 2.61l4.243 4.252 4.243 4.252c1.436 1.438 2.599 4.255 2.597 6.287l-.006 6.007-.006 6.007c-.002 2.032-1.172 4.847-2.61 6.282l-4.252 4.243-4.252 4.243c-1.438 1.436-4.255 2.599-6.287 2.597z" fill="url(#a)" fill-rule="evenodd"/></svg>