<svg enable-background="new 0 0 512 512" height="512" viewBox="0 0 512 512" width="512" xmlns="http://www.w3.org/2000/svg"><path d="m255.996.504c-141.047 0-255.396 114.299-255.496 255.327v197.72c.075 32.021 26.047 57.945 58.088 57.945h197.512c141.065-.055 255.4-114.41 255.4-255.486 0-141.109-114.393-255.506-255.504-255.506zm97.846 118.734c-8.071 0-11.004-1.551-22.83-1.551-34.915 0-63.234 28.279-63.293 63.194v54.999c0 4.928 4 8.922 8.94 8.922l41.581.009c15.491 0 28.008 12.357 28.008 27.889.009 15.633-12.646 27.941-28.303 27.941h-50.227v63.555c0 66.221-53.688 119.916-119.911 119.916-10.047 0-17.191-1.136-26.492-3.564-13.561-3.551-24.643-14.671-24.647-27.604 0-15.627 11.347-27.001 28.309-27.001 8.074 0 11.001 1.551 22.831 1.551 34.913 0 63.232-28.281 63.295-63.192v-55.002c0-4.932-4.007-8.924-8.941-8.924l-41.581-.005c-15.493 0-28.01-12.358-28.01-27.891-.008-15.635 12.646-27.939 28.305-27.939h50.22v-63.559c0-66.221 53.695-119.914 119.916-119.914 10.047 0 17.191 1.134 26.489 3.566 13.565 3.547 24.644 14.667 24.652 27.6 0 15.633-11.348 27.004-28.311 27.004z"/></svg>