<svg height="48" width="48" xmlns="http://www.w3.org/2000/svg" xmlns:xlink="http://www.w3.org/1999/xlink"><linearGradient id="a" gradientUnits="userSpaceOnUse" x1="-2.994" x2="-19.1" y1="36.39" y2="23.839"><stop offset="0" stop-color="#95a5a6"/><stop offset="1" stop-color="#eff0f1"/></linearGradient><linearGradient id="b" gradientTransform="translate(1.01 -1.022)" gradientUnits="userSpaceOnUse" x1="-14.65" x2="-6.43" y1="9.178" y2="17.522"><stop offset="0"/><stop offset="1" stop-opacity="0"/></linearGradient><linearGradient id="c" gradientTransform="translate(0 -1.022)" gradientUnits="userSpaceOnUse" x1="-28.756" x2="-10.858" xlink:href="#b" y1="9.268" y2="27.436"/><linearGradient id="d" gradientUnits="userSpaceOnUse" x1="-42.27" x2="-4.004" y1="-1.905" y2="36.934"><stop offset="0" stop-color="#66b036"/><stop offset="1" stop-color="#239161"/></linearGradient><linearGradient id="e" gradientUnits="userSpaceOnUse" x1="-2.994" x2="-41.26" y1="36.934" y2="-1.905"><stop offset="0" stop-color="#34495e"/><stop offset="1" stop-color="#1c7865"/></linearGradient><g transform="matrix(.99317 0 0 .97839 45.973 4.864)"><path d="m-36.03-.883c-2.894 0-5.137 2.332-5.223 5.224v33.615h33.04c2.894 0 5.223-2.331 5.223-5.224v-33.615z" fill="url(#d)" stroke-linejoin="bevel" stroke-width="2"/><g fill-rule="evenodd" stroke-width="1.014"><path d="m-29.17 6.271-3.02 4.088 2.458 17.375 3.02 2.044-1.074 2.044 4.332 4.398 13.01-1.912c.487-.085.946-.297 1.363-.603l-5.54-8.686.794-9.199-9.06-9.199z" fill="url(#c)" opacity=".2"/><path d="m-12.06 7.293-3.02 20.442 6.751 6.853c1.063-.939 2.311-3.634 2.311-5.304v-15.858z" fill="url(#b)" opacity=".2"/></g><g stroke-linejoin="bevel" stroke-width="2"><path d="m-27.16 5.249c-4.03 0-7.05 2.044-7.05 11.754 0 8.01 2.149 10.798 5.086 11.53.524 6.17 6.997 4.312 6.997 4.312v-2.044s-2.611.88-2.975-2.29c2.888-.769 4.989-3.586 4.989-11.508 0-9.71-3.02-11.754-7.05-11.754m0 2.044c2.01 0 3.02 1.689 3.02 9.71 0 8.02-1.01 9.71-3.02 9.71s-3.02-1.689-3.02-9.71c0-8.02 1.01-9.71 3.02-9.71" fill="#fff"/><path d="m-2.994 31.71c0 2.894-2.329 5.224-5.223 5.224h-33.04v1.022h33.04c2.894 0 5.223-2.331 5.223-5.224z" fill="url(#e)"/></g><g fill-rule="evenodd" stroke-width="1.014"><path d="m2.041 21.458s-3.344 2.232-6.288 3.934-5.488 2.875-7.089 4.993c-3.202 4.235-.63 9.603-.63 9.603s5.773 1.132 8.975-3.103c1.601-2.118 2.058-4.915 2.916-8.243.858-3.327 2.116-7.184 2.116-7.184" fill="url(#a)"/><path d="m2.041 21.459s-.342.221-.403.262c-.41 1.295-1.09 3.483-1.713 5.899-.858 3.327-1.316 6.125-2.916 8.243-3.202 4.235-8.973 3.104-8.973 3.104s-.834-1.752-.958-4.04c-.132 2.77.958 5.065.958 5.065s5.772 1.131 8.973-3.104c1.601-2.118 2.059-4.915 2.916-8.243.858-3.327 2.116-7.183 2.116-7.183" fill="#7f8c8d"/><path d="m-15.08 7.293h3.02v4.088h2.01v2.044h-2.01v11.243c0 2.044 2.01.511 2.01.511v2.044s-6.04 3.577-6.04-2.555v-11.243h-1.01v-2.044h1.01z" fill="#fff"/></g></g></svg>