<svg viewBox="0 0 128 128" xmlns="http://www.w3.org/2000/svg"><g fill="#2c8ebb"><path d="m99.24 80.71c-4.34.05-8.14 2.29-11.35 4.29-6 3.71-9 3.47-9 3.47l-.1-.17c-.41-.67 1.92-6.68-.69-13.84-2.82-7.83-7.3-9.72-6.94-10.32 1.53-2.59 5.36-6.7 6.89-14.36.91-4.64.67-12.28-1.39-16.28-.38-.74-3.78 1.24-3.78 1.24s-3.18-7.09-4.07-7.66c-2.87-1.84-6 7.61-6 7.61a14 14 0 0 0 -11.71 4.5 9.64 9.64 0 0 1 -3.85 2.27c-.41.14-.91.12-2.15 3.47-1.9 5.07 3.24 10.81 3.24 10.81s-6.13 4.33-8.4 9.72a24.78 24.78 0 0 0 -1.75 11.68s-4.36 3.78-4.64 7.68a12.87 12.87 0 0 0 1.77 7.83 1.94 1.94 0 0 0 2.63.91s-2.9 3.38-.19 4.81c2.47 1.29 6.63 2 8.83-.19 1.6-1.6 1.92-5.17 2.51-6.63.14-.34.62.57 1.08 1a10 10 0 0 0 1.36 1s-3.9 1.68-2.3 5.51c.53 1.27 2.42 2.08 5.51 2.06 1.15 0 13.76-.72 17.12-1.53a4.33 4.33 0 0 0 2.61-1.46 63 63 0 0 0 15.49-7c4.74-3.09 6.68-3.93 10.51-4.84 3.16-.75 2.95-5.65-1.24-5.58z"/><path d="m64 2a62 62 0 1 0 62 62 62 62 0 0 0 -62-62zm37.3 87.83c-3.35.81-4.91 1.44-9.41 4.36a67 67 0 0 1 -15.56 7.18 8.71 8.71 0 0 1 -3.64 1.77c-3.81.93-16.88 1.63-17.91 1.63h-.24c-4 0-6.27-1.24-7.49-2.54-3.4 1.7-7.8 1-11-.69a5.55 5.55 0 0 1 -3-3.9 6 6 0 0 1 0-2.06 6.66 6.66 0 0 1 -.79-1 16.38 16.38 0 0 1 -2.26-10.06c.29-3.73 2.87-7.06 4.55-8.83a28.56 28.56 0 0 1 2.06-11.69 26.82 26.82 0 0 1 6.82-9c-1.65-2.78-3.33-7.06-1.7-11.42 1.17-3.11 2.13-4.84 4.24-5.58a6.84 6.84 0 0 0 2.51-1.34 17.65 17.65 0 0 1 11.86-5.66c.19-.48.41-1 .65-1.46 1.6-3.4 3.3-5.31 5.29-6a4.88 4.88 0 0 1 4.4.5c.65.43 1.48 1 3.9 6a4.69 4.69 0 0 1 2.85-.1 3.81 3.81 0 0 1 2.39 1.94c2.47 4.74 2.8 13.19 1.72 18.62a33.8 33.8 0 0 1 -5.84 13.31 25.73 25.73 0 0 1 5.77 9.43 25.42 25.42 0 0 1 1.41 10.41 28.7 28.7 0 0 0 3.12-1.74c3.06-1.89 7.68-4.74 13.19-4.81a6.62 6.62 0 0 1 7 5.7 6.35 6.35 0 0 1 -4.89 7.03z"/></g></svg>